<?xml version="1.0"?>
<svg xmlns="http://www.w3.org/2000/svg" xmlns:xlink="http://www.w3.org/1999/xlink" xmlns:svgjs="http://svgjs.com/svgjs"
    version="1.1" width="512" height="512" x="0" y="0" viewBox="0 0 512 511" style="enable-background:new 0 0 512 512"
    xml:space="preserve" class="">
    <g transform="matrix(1,0,0,1,0,0)">
        <path xmlns="http://www.w3.org/2000/svg"
            d="m407 .5h-302c-57.898438 0-105 47.101562-105 105v162.171875c0 46.199219 30.332031 86.4375 74.285156 99.316406l50.710938 50.714844c2.816406 2.8125 6.628906 4.394531 10.609375 4.394531 3.976562 0 7.792969-1.582031 10.605469-4.394531l46.519531-46.523437h214.269531c57.898438 0 105-47.101563 105-105v-160.679688c0-57.898438-47.101562-105-105-105zm75 265.679688c0 41.355468-33.644531 75-75 75h-220.480469c-3.976562 0-7.792969 1.582031-10.605469 4.394531l-40.308593 40.308593-42.929688-42.929687c-1.925781-1.925781-4.339843-3.292969-6.984375-3.949219-32.789062-8.160156-55.691406-37.492187-55.691406-71.332031v-162.171875c0-41.355469 33.644531-75 75-75h302c41.355469 0 75 33.644531 75 75zm0 0"
            fill="#5b626a" data-original="#000000" style="" class="" />
    </g>
</svg>